PathFileType	4	(X/Y/Z)	Run_200 02
DataRate	CameraRate	NumFrames	NumMarkers	Units	OrigDataRate	OrigDataStartFrame	OrigNumFrames
100	100	4	42	mm	100	77	128
Frame#	Time	RASI			LPSI			RPSI			RTH2			RTH3			LTH1			LTH2			LTH3			RTB1			RTB2			LTB1			LTB2			LTB3			RCAL			RMT5			LCAL			LTOE			LMT5			LACR			RACR			CLAV			C7			RUA1			RUA2			RUA3			RLEL			LUA1			LUA2			LUA3			LLEL			RFAsuperior			RFAradius			RFAulna			LFAsuperior			LFAradius			LFAulna			RTOE			RTH1			LMEL			RTB3			RMEL			LASI		
		X1	Y1	Z1	X2	Y2	Z2	X3	Y3	Z3	X4	Y4	Z4	X5	Y5	Z5	X6	Y6	Z6	X7	Y7	Z7	X8	Y8	Z8	X9	Y9	Z9	X10	Y10	Z10	X11	Y11	Z11	X12	Y12	Z12	X13	Y13	Z13	X14	Y14	Z14	X15	Y15	Z15	X16	Y16	Z16	X17	Y17	Z17	X18	Y18	Z18	X19	Y19	Z19	X20	Y20	Z20	X21	Y21	Z21	X22	Y22	Z22	X23	Y23	Z23	X24	Y24	Z24	X25	Y25	Z25	X26	Y26	Z26	X27	Y27	Z27	X28	Y28	Z28	X29	Y29	Z29	X30	Y30	Z30	X31	Y31	Z31	X32	Y32	Z32	X33	Y33	Z33	X34	Y34	Z34	X35	Y35	Z35	X36	Y36	Z36	X37	Y37	Z37	X38	Y38	Z38	X39	Y39	Z39	X40	Y40	Z40	X41	Y41	Z41	X42	Y42	Z42	

77	  0.770000	1047.748669	1018.779393	-233.829385	893.204681	1080.018765	-420.012197	888.096881	1071.789928	-306.823986	986.132371	748.273293	-204.343516	1083.424245	618.040547	-202.806454	1005.979663	893.381604	-535.581230	953.529908	733.609458	-491.195173	1022.750417	607.235592	-480.398438	1060.190022	394.970377	-260.753411	976.287132	430.158428	-190.924002	1050.178694	382.583902	-398.124040	934.410361	310.755957	-452.361477	932.685597	197.059970	-385.226378	714.818593	309.454706	-251.962230	820.361758	140.304160	-181.937252	754.576287	108.364460	-363.251663	990.247515	 72.121379	-348.221175	940.894164	 36.851852	-444.283814	1041.178739	1496.347976	-529.970175	1050.006368	1484.504399	-201.631293	1105.026388	1450.073419	-332.431769	992.019700	1530.024914	-368.522856	926.428147	1401.720421	-144.911058	958.128400	1337.627593	-113.745175	876.688689	1274.343511	-79.228133	832.818424	1225.026479	-53.717148	952.375483	1386.856487	-584.890459	985.258861	1306.419445	-596.716619	920.651747	1231.824446	-614.459033	908.645475	1165.368408	-631.536855	900.885621	1136.849019	-42.133078	1028.991561	1029.282650	-119.090614	989.495676	1004.012075	-68.073666	977.375318	1114.131994	-626.002610	1148.751296	1118.036178	-539.716174	1140.199346	1056.172290	-575.136288	870.423456	123.970058	-276.338425	986.573810	898.341796	-186.889220	896.488367	1149.302484	-543.006686	903.393835	302.098155	-260.524953	833.268327	1196.183335	-138.651493	1071.725517	1004.256027	-476.862444	
78	  0.780000	1046.686515	1023.397620	-233.705214	893.745784	1084.066942	-420.783992	887.564242	1076.771750	-307.595603	988.379097	753.704547	-203.504427	1088.538987	625.735906	-202.469958	1004.377875	895.692676	-534.755273	946.024213	737.511155	-490.434100	1011.175567	609.136652	-479.294989	1073.031163	399.746738	-260.017530	986.701203	431.930270	-191.553700	1032.972944	383.445234	-397.412645	916.701410	312.773185	-451.723805	914.323738	198.838474	-384.919963	732.023332	295.837211	-253.421139	847.021741	134.215590	-180.757204	735.746385	111.494265	-363.626771	970.443723	 71.369366	-347.121514	920.808954	 37.390111	-444.290842	1042.735498	1501.360705	-529.080856	1046.224910	1489.980175	-200.700525	1103.642789	1454.649704	-330.695279	991.455075	1534.599754	-368.568947	920.577396	1409.139301	-146.479016	950.646056	1345.385536	-112.916942	867.856534	1283.796806	-79.489139	822.622148	1235.459471	-54.409598	954.945766	1391.373935	-584.953559	989.269700	1310.973308	-595.662181	925.927221	1235.479978	-614.095090	914.495557	1169.075184	-630.625515	890.061173	1147.379202	-42.303212	1018.537441	1039.584511	-117.588607	977.963256	1013.854517	-67.601518	984.776507	1120.943930	-623.329969	1154.229664	1132.640803	-534.749879	1148.599940	1069.579375	-568.696104	899.185882	119.853401	-274.963951	985.897313	903.739528	-185.846552	901.138332	1153.354260	-542.125828	922.089662	299.442143	-260.825082	823.793503	1206.495171	-139.220332	1070.732741	1008.773623	-476.714048	
79	  0.790000	1045.815121	1028.716879	-233.497941	894.628613	1088.801724	-421.720538	887.131536	1082.250783	-308.848364	990.270867	759.908300	-202.429654	1092.930546	633.974651	-201.875721	1002.915558	898.491050	-533.829465	938.355422	742.343794	-489.337908	999.157880	611.930064	-477.835150	1085.192176	404.727772	-259.145259	996.363719	433.254220	-192.391806	1015.801585	385.233450	-396.584792	899.055932	315.735584	-451.139524	896.244495	201.414846	-384.626184	750.232107	281.204078	-255.424544	874.491186	127.912192	-179.871976	717.344689	115.716432	-364.150458	950.904781	 70.874036	-346.604774	900.660637	 37.835665	-443.920676	1043.929581	1507.187557	-527.947740	1042.643859	1496.035048	-199.649491	1102.384491	1460.060271	-328.908860	990.963258	1539.796831	-368.208887	915.061098	1417.323696	-147.864692	943.436719	1353.760118	-112.199024	859.229080	1293.806300	-79.952895	812.644398	1246.461921	-55.434304	956.896153	1396.633119	-584.363658	992.864009	1316.522611	-594.691023	931.178508	1240.048437	-614.033171	919.889884	1173.843100	-629.874089	879.411418	1158.414352	-42.828660	1008.687655	1050.951387	-116.472841	967.377765	1024.744126	-67.344233	991.361237	1128.848068	-620.817459	1158.578813	1148.259234	-530.102231	1156.007241	1084.202070	-562.523441	928.725393	116.073451	-273.465207	985.119678	909.851201	-184.623653	905.359841	1158.464755	-541.403115	939.584618	296.305600	-261.298033	814.472265	1217.426881	-140.096275	1069.930545	1013.991685	-476.482578	
80	  0.800000	1045.086689	1034.611220	-233.111864	896.146384	1094.097628	-422.898071	886.873481	1088.021268	-310.406781	991.746347	766.808437	-201.285832	1096.398257	642.554134	-201.143006	1001.640714	901.781129	-532.794384	930.753540	748.070005	-488.240677	987.116987	615.623668	-476.309691	1096.571758	409.958898	-258.194194	1005.262866	433.909596	-193.269283	998.722540	388.019592	-395.582468	881.696391	319.584080	-450.741554	878.472421	204.808338	-384.402096	769.544751	265.705904	-258.091058	902.708597	121.616413	-179.277412	699.376008	121.071595	-364.933022	931.609657	 70.814334	-346.905235	880.547845	 38.324397	-443.655941	1044.876493	1513.463901	-526.609025	1039.378855	1502.426718	-198.540261	1101.262333	1466.137125	-327.095951	990.549188	1545.453507	-367.545331	910.021639	1425.927507	-149.196528	936.641907	1362.504993	-111.678626	850.958856	1304.142881	-80.679234	803.035570	1257.748244	-56.878220	958.734573	1402.610929	-583.672149	996.059291	1322.850088	-593.854017	935.930051	1245.543141	-614.216544	924.670614	1179.459123	-629.307176	869.091489	1169.718650	-43.694406	999.479312	1062.895426	-115.572913	957.618545	1036.199330	-67.227164	997.071858	1137.449968	-618.577852	1161.730262	1164.465667	-525.704105	1162.156442	1099.675271	-556.713571	958.999295	112.875154	-271.955303	984.322258	916.606600	-183.220677	908.937594	1164.464302	-540.851858	956.094061	292.367272	-261.763073	805.390685	1228.702507	-141.333440	1069.270964	1019.784437	-476.073750	
